# xmcd CD database file
#
# Track frame offsets:
#	150
#	11982
#	30281
#	45691
#	60960
#	75321
#	92222
#	107419
#	123594
#	139101
#	153733
#	172153
#	185328
#	208881
#	224298
#	228202
#	243975
#	264543
#	283545
#
# Disc length: 4057 seconds
#
# Revision: 0
# Processed by: cddbd v1.5.2PL0 Copyright (c) Steve Scherf et al.
# Submitted via: CDex 1.51
#
DISCID=060fd713
DTITLE=McBride, Martina - Greatest Hits
DYEAR=1900
DGENRE=Country
TTITLE0=My Baby Loves Me
TTITLE1=Life #9
TTITLE2=Independence Day
TTITLE3=Strangers
TTITLE4=Safe In the Arms of Love
TTITLE5=Wild Angels
TTITLE6=Valentine
TTITLE7=A Broken Wing
TTITLE8=Happy Girl
TTITLE9=Wrong Again
TTITLE10=Whatever You Say
TTITLE11=I Love You
TTITLE12=Love's The Only House
TTITLE13=There You Are
TTITLE14=When God-Fearin' Women Get the Blues - Intro
TTITLE15=When God Fearin' Women Get the Blues
TTITLE16=Where Would You Be
TTITLE17=Concrete Angel
TTITLE18=Blessed
EXTD=
EXTT0=
EXTT1=
EXTT2=
EXTT3=
EXTT4=
EXTT5=
EXTT6=
EXTT7=
EXTT8=
EXTT9=
EXTT10=
EXTT11=
EXTT12=
EXTT13=
EXTT14=
EXTT15=
EXTT16=
EXTT17=
EXTT18=
PLAYORDER=
